# This file uses centimeters as units for non-parametric coordinates.

mtllib Tile.mtl
g default
v -1.000000 -0.308871 1.000000
v 1.000000 -0.308871 1.000000
v -1.000000 0.308871 1.000000
v 1.000000 0.308871 1.000000
v -1.000000 0.308871 -1.000000
v 1.000000 0.308871 -1.000000
v -1.000000 -0.308871 -1.000000
v 1.000000 -0.308871 -1.000000
vt 0.000000 0.809072
vt 0.000000 0.190927
vt 0.190927 0.809073
vt 0.190928 0.190927
vt 1.000000 0.190928
vt 1.000000 0.809073
vt 0.809073 0.190928
vt 0.809073 0.809073
vt 0.809073 1.000000
vt 0.190927 1.000000
vt 0.809073 0.000000
vt 0.190928 0.000000
vn 0.000000 0.000000 1.000000
vn 0.000000 0.000000 1.000000
vn 0.000000 0.000000 1.000000
vn 0.000000 0.000000 1.000000
vn 0.000000 1.000000 0.000000
vn 0.000000 1.000000 0.000000
vn 0.000000 1.000000 0.000000
vn 0.000000 1.000000 0.000000
vn 0.000000 0.000000 -1.000000
vn 0.000000 0.000000 -1.000000
vn 0.000000 0.000000 -1.000000
vn 0.000000 0.000000 -1.000000
vn 1.000000 0.000000 0.000000
vn 1.000000 0.000000 0.000000
vn 1.000000 0.000000 0.000000
vn 1.000000 0.000000 0.000000
vn -1.000000 0.000000 0.000000
vn -1.000000 0.000000 0.000000
vn -1.000000 0.000000 0.000000
vn -1.000000 0.000000 0.000000
s 1
g Tile
usemtl initialShadingGroup
f 1/9/1 2/10/2 3/8/3
f 3/8/3 2/10/2 4/3/4
s 2
f 3/8/5 4/3/6 5/7/7
f 5/7/7 4/3/6 6/4/8
s 3
f 5/7/9 6/4/10 7/11/11
f 7/11/11 6/4/10 8/12/12
s 4
f 2/1/13 8/2/14 4/3/15
f 4/3/15 8/2/14 6/4/16
s 5
f 7/5/17 1/6/18 5/7/19
f 5/7/19 1/6/18 3/8/20
